Cover:  
http://www.shotpix.com/images/21387898447672356328.jpg


Release Title: Find Me Guilty (2006)


Ratings: 7.0/10 |  
http://www.imdb.com/title/tt0419749/


Plot: Based on the true story of Jack DiNorscio, a mobster who defended himself in court for what would be the longest mafia trial in U.S. history.

Director: Sidney Lumet

Writers: Sidney Lumet, T.J. Mancini

Stars:  Vin Diesel, Peter Dinklage and Ron Silver

Genres: Comedy | Crime | Drama

Rating: Rated R for strong language and some violence.


                Details:

General
Format                         : MPEG-4
Format profile                 : Base Media / Version 2
File size                      : 725 MiB
Duration                       : 2h 4mn
Overall bit rate               : 813 Kbps

Video
ID                             : 1
Format                         : AVC
Format/Info                    : Advanced Video Codec
Duration                       : 2h 4mn
Bit rate mode                  : Variable
Bit rate                       : 712 Kbps
Width                          : 1 280 pixels
Height                         : 720 pixels
Display aspect ratio           : 16:9
Frame rate mode                : Variable
Frame rate                     : 23.976 fps
Stream size                    : 635 MiB (88%)
Writing library                : x264 core 125


Audio
ID                             : 2
Format                         : AAC
Format/Info                    : Advanced Audio Codec
Format profile                 : LC
Duration                       : 2h 4mn
Bit rate mode                  : Variable
Bit rate                       : 96.0 Kbps
Channel(s)                     : 2 channels
Channel positions              : Front: L R
Sampling rate                  : 48.0 KHz
Stream size                    : 85.6 MiB (12%)

Subtitle                       : Yes (English)


Screens:

 
http://www.shotpix.com/images/41736973590789624147.png 
http://www.shotpix.com/images/05622425599477596028.png 
http://www.shotpix.com/images/44532003239823460014.png 
http://www.shotpix.com/images/35874112571901197643.png 
http://www.shotpix.com/images/58840546014430441116.png

------------------------------------------------------------------------


Notes:

* Check sample to be sure.
* Best played on VLC Media Player.
* Install shark007 codecs in case of any kind of problem in playback (For non-VLC Media Player users).
* Alternatively, install Core AVC codecs, the fastest decoder that there is coupled with Community Center Codec Pack and play on Windows Media Player Classic.
* Read NFO.
* Help in seeding this torrent as much as you can. 


Greets to: srkfan, VYTO, MgB, staff members at ExtraTorrent, TPB,KAT, 1337x, PublicHD, Ahashare,
SilverTorrent, TorrentMafia, P2PDL, and all others


Encoder Notes: Looking For Early Access To Anything You Can Provide DVDScr, R5, DVDRips, BluRay, Direct Audio, Early Music
Releases, Seedboxes, Links, Dedicated Servers, Advance / Promo CDs/DVDs. If You Got anything to
offer contact me at "contact@tinym.eu".

Facebook fan page: www . facebook . com / p2pdl

Enhanced for best viewing experience. Enjoy!